<?xml version="1.0" standalone="no"?>
<!DOCTYPE svg PUBLIC "-//W3C//DTD SVG 20010904//EN"
 "http://www.w3.org/TR/2001/REC-SVG-20010904/DTD/svg10.dtd">
<svg version="1.0" xmlns="http://www.w3.org/2000/svg"
 width="300.000000pt" height="300.000000pt" viewBox="0 0 300.000000 300.000000"
 preserveAspectRatio="xMidYMid meet">
<metadata>
Created by potrace 1.11, written by Peter Selinger 2001-2013
</metadata>
<g transform="translate(0.000000,300.000000) scale(0.100000,-0.100000)"
fill="#000000" stroke="none">
<path d="M2421 2860 c-128 -77 -234 -140 -235 -140 -2 0 -44 -25 -203 -122
-18 -11 -33 -22 -33 -24 0 -2 26 -21 58 -43 65 -45 162 -135 214 -201 134
-168 223 -411 227 -627 l1 -32 120 72 c116 70 120 73 115 102 -2 17 -7 48 -10
70 -15 101 -49 204 -113 345 -39 86 -130 218 -212 309 -16 18 -30 37 -30 40 0
4 92 62 205 129 113 68 205 125 205 127 0 5 -49 94 -65 117 -10 15 -35 3 -244
-122z"/>
<path d="M1398 2965 c-2 -2 -35 -6 -75 -9 -301 -28 -624 -211 -820 -466 -144
-187 -236 -401 -267 -625 -8 -57 -16 -205 -11 -205 16 0 255 154 256 166 1 8
2 17 3 22 1 4 6 27 10 51 5 24 19 75 31 111 180 531 725 815 1236 645 l77 -25
107 65 c59 36 110 65 115 65 4 0 13 6 19 14 9 11 -2 20 -56 49 -178 93 -338
134 -545 141 -43 2 -79 2 -80 1z"/>
<path d="M540 1670 l0 -370 253 2 252 3 1 73 1 72 -168 0 -169 0 0 70 0 70
130 0 c72 0 130 3 131 8 0 4 1 37 2 75 l2 67 -132 0 -133 0 0 75 0 75 168 0
168 0 0 75 1 75 -254 0 -253 0 0 -370z"/>
<path d="M1150 1670 l0 -372 218 4 c201 3 220 5 259 26 73 38 114 112 106 192
-7 71 -49 130 -110 155 l-26 10 35 19 c110 59 110 224 0 301 l-44 30 -219 3
-219 4 0 -372z m361 226 c43 -31 44 -93 1 -126 -20 -16 -40 -20 -108 -20 -60
0 -84 4 -85 13 0 6 -2 43 -2 80 l-2 68 91 -2 c49 -1 97 -7 105 -13z m25 -309
c15 -18 24 -41 24 -62 0 -21 -9 -44 -24 -62 -23 -26 -29 -28 -120 -31 -82 -3
-96 -2 -97 12 0 9 -1 43 -1 76 0 113 -11 102 98 98 91 -3 97 -5 120 -31z"/>
<path d="M1800 2032 c0 -4 4 -12 9 -17 4 -6 22 -35 38 -65 17 -30 39 -71 50
-90 11 -19 36 -64 56 -100 l36 -66 -79 -144 c-44 -80 -84 -152 -89 -160 -6 -8
-19 -32 -30 -52 l-21 -38 80 0 79 0 69 131 c81 152 63 155 156 -21 l55 -105
86 -3 c98 -3 96 1 48 -97 -80 -161 -230 -328 -373 -417 -249 -155 -561 -189
-830 -92 l-69 24 -126 -76 c-143 -87 -142 -76 -10 -142 81 -40 207 -84 280
-97 22 -4 49 -10 60 -12 56 -13 296 -11 375 3 494 87 883 453 1004 945 29 119
34 150 41 273 l6 88 -38 -23 c-47 -28 -217 -131 -220 -133 0 0 -4 -18 -7 -38
-9 -57 -24 -122 -36 -154 -11 -27 -12 -26 -71 82 -33 60 -69 125 -80 144 -11
19 -29 53 -41 76 l-21 41 38 69 c21 38 64 115 96 172 l58 102 -78 0 -79 0 -37
-72 c-44 -83 -76 -141 -80 -147 -2 -2 -29 47 -59 108 l-56 111 -95 0 c-52 0
-95 -4 -95 -8z"/>
<path d="M345 1611 c-127 -78 -125 -73 -94 -216 49 -222 161 -447 300 -599
l49 -54 -142 -87 c-79 -48 -169 -103 -201 -123 -32 -19 -60 -39 -63 -44 -6
-10 67 -139 75 -134 3 2 83 51 176 108 94 57 248 150 343 207 94 57 172 104
172 106 0 2 -28 23 -62 48 -255 183 -422 506 -427 825 -1 17 -4 32 -8 31 -5 0
-57 -31 -118 -68z"/>
<path d="M2492 420 c-1 -27 3 -30 29 -30 26 0 29 3 29 30 0 26 -4 30 -28 30
-25 0 -29 -4 -30 -30z"/>
<path d="M2024 303 c1 -138 1 -138 25 -141 13 -2 26 1 30 6 5 8 6 177 2 255
-1 12 -9 17 -29 17 l-28 0 0 -137z"/>
<path d="M2369 410 c-1 -14 -1 -28 0 -32 0 -5 -8 -8 -19 -8 -15 0 -20 -7 -20
-25 0 -16 6 -25 15 -25 17 0 17 -4 15 -73 -2 -68 20 -99 67 -95 44 4 55 34 17
48 -21 9 -24 16 -24 65 0 48 2 55 20 55 15 0 20 7 20 25 0 18 -5 25 -20 25
-16 0 -20 7 -20 35 0 31 -3 35 -25 33 -19 -2 -25 -8 -26 -28z"/>
<path d="M1626 359 c-27 -22 -34 -56 -16 -89 9 -16 55 -33 95 -35 6 0 10 -9
10 -20 0 -26 -52 -35 -61 -11 -7 18 -31 21 -53 7 -11 -7 -8 -14 15 -36 25 -23
35 -26 74 -22 50 6 80 34 80 76 -1 39 -22 59 -69 65 -49 5 -56 9 -48 31 8 19
41 20 56 1 12 -14 51 -11 51 4 0 17 -54 50 -80 50 -15 0 -39 -9 -54 -21z"/>
<path d="M1825 355 c-14 -14 -26 -34 -26 -43 -1 -9 -3 -30 -5 -46 -4 -38 20
-90 51 -106 38 -20 92 -5 115 33 37 60 17 157 -36 177 -42 16 -72 11 -99 -15z
m82 -27 c14 -19 16 -107 3 -124 -18 -21 -35 -17 -47 9 -11 24 -10 98 2 117 9
14 30 13 42 -2z"/>
<path d="M2648 373 c-26 -7 -49 -51 -53 -101 -3 -57 8 -84 47 -106 66 -40 138
11 138 97 0 85 -55 131 -132 110z m62 -53 c16 -31 8 -111 -12 -124 -24 -15
-38 1 -43 53 -8 74 28 121 55 71z"/>
<path d="M2887 363 c-11 -11 -17 -13 -17 -5 0 7 -13 12 -28 12 l-28 0 0 -105
0 -105 28 0 28 0 0 74 c0 76 13 104 44 93 10 -4 13 -26 12 -87 l-1 -81 30 3
30 3 -1 94 c-2 79 -5 97 -20 108 -25 18 -56 16 -77 -4z"/>
<path d="M2135 276 c1 -101 11 -126 49 -126 12 0 32 7 44 16 12 8 22 10 22 5
0 -12 50 -15 51 -3 1 10 1 174 0 190 -1 6 -14 12 -29 12 l-28 0 1 -71 c1 -75
-11 -106 -39 -96 -13 5 -16 21 -16 87 l0 80 -29 0 -28 0 2 -94z"/>
<path d="M2494 265 l0 -105 28 0 c22 0 28 5 29 23 0 12 1 59 2 105 l2 82 -31
0 -31 0 1 -105z"/>
</g>
</svg>
